<mxfile host="Electron" agent="Mozilla/5.0 (X11; Linux x86_64) AppleWebKit/537.36 (KHTML, like Gecko) draw.io/27.0.9 Chrome/134.0.6998.205 Electron/35.4.0 Safari/537.36" version="27.0.9">
  <diagram name="Page-1" id="0X7zz6aiW7R4K2MqR9K-">
    <mxGraphModel dx="987" dy="764" grid="1" gridSize="10" guides="1" tooltips="1" connect="1" arrows="1" fold="1" page="1" pageScale="1" pageWidth="850" pageHeight="1100" math="0" shadow="0">
      <root>
        <mxCell id="0" />
        <mxCell id="1" parent="0" />
        <mxCell id="frRROJ3YaCpHCc3T42hf-6" value="&lt;b&gt;Express (index.ts)&lt;/b&gt;" style="rounded=1;whiteSpace=wrap;html=1;" vertex="1" parent="1">
          <mxGeometry x="300" y="120" width="220" height="60" as="geometry" />
        </mxCell>
        <mxCell id="frRROJ3YaCpHCc3T42hf-7" value="" style="endArrow=classic;html=1;rounded=0;exitX=0.5;exitY=1;exitDx=0;exitDy=0;entryX=0.5;entryY=0;entryDx=0;entryDy=0;" edge="1" parent="1" source="frRROJ3YaCpHCc3T42hf-6" target="frRROJ3YaCpHCc3T42hf-8">
          <mxGeometry width="50" height="50" relative="1" as="geometry">
            <mxPoint x="425" y="290" as="sourcePoint" />
            <mxPoint x="425" y="370" as="targetPoint" />
          </mxGeometry>
        </mxCell>
        <mxCell id="frRROJ3YaCpHCc3T42hf-8" value="&lt;b&gt;Routes (routes/productRoutes.ts)&lt;/b&gt;" style="rounded=1;whiteSpace=wrap;html=1;" vertex="1" parent="1">
          <mxGeometry x="300" y="220" width="220" height="60" as="geometry" />
        </mxCell>
        <mxCell id="frRROJ3YaCpHCc3T42hf-9" value="" style="endArrow=classic;html=1;rounded=0;exitX=0.5;exitY=1;exitDx=0;exitDy=0;entryX=0.5;entryY=0;entryDx=0;entryDy=0;" edge="1" parent="1" source="frRROJ3YaCpHCc3T42hf-8" target="frRROJ3YaCpHCc3T42hf-10">
          <mxGeometry width="50" height="50" relative="1" as="geometry">
            <mxPoint x="410" y="360" as="sourcePoint" />
            <mxPoint x="419.5" y="430" as="targetPoint" />
          </mxGeometry>
        </mxCell>
        <mxCell id="frRROJ3YaCpHCc3T42hf-1" value="&lt;b&gt;Client HTTP&lt;/b&gt;" style="rounded=1;whiteSpace=wrap;html=1;" vertex="1" parent="1">
          <mxGeometry x="315" y="20" width="190" height="60" as="geometry" />
        </mxCell>
        <mxCell id="frRROJ3YaCpHCc3T42hf-3" value="" style="endArrow=classic;html=1;rounded=0;entryX=0.5;entryY=0;entryDx=0;entryDy=0;exitX=0.5;exitY=1;exitDx=0;exitDy=0;" edge="1" parent="1" source="frRROJ3YaCpHCc3T42hf-1" target="frRROJ3YaCpHCc3T42hf-6">
          <mxGeometry width="50" height="50" relative="1" as="geometry">
            <mxPoint x="425" y="150" as="sourcePoint" />
            <mxPoint x="425" y="230" as="targetPoint" />
          </mxGeometry>
        </mxCell>
        <mxCell id="frRROJ3YaCpHCc3T42hf-10" value="&lt;b&gt;Controller (controllers/productController.ts)&lt;/b&gt;" style="rounded=1;whiteSpace=wrap;html=1;" vertex="1" parent="1">
          <mxGeometry x="245" y="320" width="330" height="60" as="geometry" />
        </mxCell>
        <mxCell id="frRROJ3YaCpHCc3T42hf-11" value="" style="endArrow=classic;html=1;rounded=0;exitX=0.5;exitY=1;exitDx=0;exitDy=0;entryX=0.5;entryY=0;entryDx=0;entryDy=0;" edge="1" parent="1" source="frRROJ3YaCpHCc3T42hf-10" target="frRROJ3YaCpHCc3T42hf-12">
          <mxGeometry width="50" height="50" relative="1" as="geometry">
            <mxPoint x="370" y="500" as="sourcePoint" />
            <mxPoint x="430" y="530" as="targetPoint" />
          </mxGeometry>
        </mxCell>
        <mxCell id="frRROJ3YaCpHCc3T42hf-12" value="&lt;b&gt;Services (services/productService.ts)&lt;/b&gt;" style="rounded=1;whiteSpace=wrap;html=1;" vertex="1" parent="1">
          <mxGeometry x="285" y="420" width="250" height="60" as="geometry" />
        </mxCell>
        <mxCell id="frRROJ3YaCpHCc3T42hf-13" value="" style="endArrow=classic;html=1;rounded=0;exitX=0.5;exitY=1;exitDx=0;exitDy=0;entryX=0.5;entryY=0;entryDx=0;entryDy=0;" edge="1" parent="1" source="frRROJ3YaCpHCc3T42hf-12" target="frRROJ3YaCpHCc3T42hf-14">
          <mxGeometry width="50" height="50" relative="1" as="geometry">
            <mxPoint x="330" y="630" as="sourcePoint" />
            <mxPoint x="295" y="660" as="targetPoint" />
          </mxGeometry>
        </mxCell>
        <mxCell id="frRROJ3YaCpHCc3T42hf-14" value="&lt;b&gt;API External (http://fakehistoryapi.com&lt;/b&gt;" style="rounded=1;whiteSpace=wrap;html=1;" vertex="1" parent="1">
          <mxGeometry x="280" y="530" width="260" height="60" as="geometry" />
        </mxCell>
      </root>
    </mxGraphModel>
  </diagram>
</mxfile>
